<?xml version='1.0' encoding='UTF-8' standalone='no'?>
<!-- Generator: Adobe Illustrator 20.0.0, SVG Export Plug-In . SVG Version: 6.00 Build 0)  -->
<svg xmlns="http://www.w3.org/2000/svg" y="0px" width="0.98819447in" id="Layer_1" xmlns:xml="http://www.w3.org/XML/1998/namespace" viewBox="0 0 71.150002 59.953001"  xml:space="preserve" version="1.2" gorn="0" height="0.83268058in" x="0px">
    <metadata id="metadata250" >
        <rdf:RDF xmlns:rdf="http://www.w3.org/1999/02/22-rdf-syntax-ns#">
            <cc:Work xmlns:rdf="http://www.w3.org/1999/02/22-rdf-syntax-ns#" xmlns:cc="http://creativecommons.org/ns#" rdf:about="">
                <dc:format xmlns:dc="http://purl.org/dc/elements/1.1/">image/svg+xml</dc:format>
                <dc:type xmlns:dc="http://purl.org/dc/elements/1.1/" xmlns:rdf="http://www.w3.org/1999/02/22-rdf-syntax-ns#" rdf:resource="http://purl.org/dc/dcmitype/StillImage"/>
                <dc:title xmlns:dc="http://purl.org/dc/elements/1.1/"/>
            </cc:Work>
        </rdf:RDF>
    </metadata>
    <defs id="defs248" />
    <desc id="desc2" >
        <referenceFile >Adafruit 14-segment Alphanumeric LED_breadboard-red.svg</referenceFile>
    </desc>
    <desc id="desc4" >Fritzing breadboard generated by brd2svg</desc>
    <g transform="translate(0,-19.247)" >
        <g >
            <g >
                <g >
                    <g >
                        <g >
                            <g id="g233"  gorn="0.4.0.0.0.0.0.0">
                                <g transform="matrix(0,-0.072,0.071,0,2.4550014,75.143502)" >
                                    <g >
                                        <g >
                                            <g >
                                                <g >
                                                    <g >
                                                        <g id="copper1"  gorn="0.4.0.0.0.0.0.0.0.0.0.0.0.0.0">
                                                            <g id="copper0"  gorn="0.4.0.0.0.0.0.0.0.0.0.0.0.0.0.0">
                                                                <rect stroke="#ffbf00" y="32.5" width="55" id="square"  stroke-width="20" fill="none" gorn="0.4.0.0.0.0.0.0.0.0.0.0.0.0.0.0.0" height="55" x="32.5"/>
                                                                <circle stroke="#ffbf00" id="connector0pin" cx="60"  stroke-width="20" cy="60" fill="none" r="27.5" gorn="0.4.0.0.0.0.0.0.0.0.0.0.0.0.0.0.1"/>
                                                                <circle stroke="#ffbf00" id="connector17pin" cx="660"  stroke-width="20" cy="60" fill="none" r="27.5" gorn="0.4.0.0.0.0.0.0.0.0.0.0.0.0.0.0.2"/>
                                                                <circle stroke="#ffbf00" id="connector1pin" cx="60"  stroke-width="20" cy="160" fill="none" r="27.5" gorn="0.4.0.0.0.0.0.0.0.0.0.0.0.0.0.0.3"/>
                                                                <circle stroke="#ffbf00" id="connector16pin" cx="660"  stroke-width="20" cy="160" fill="none" r="27.5" gorn="0.4.0.0.0.0.0.0.0.0.0.0.0.0.0.0.4"/>
                                                                <circle stroke="#ffbf00" id="connector2pin" cx="60"  stroke-width="20" cy="260" fill="none" r="27.5" gorn="0.4.0.0.0.0.0.0.0.0.0.0.0.0.0.0.5"/>
                                                                <circle stroke="#ffbf00" id="connector15pin" cx="660"  stroke-width="20" cy="260" fill="none" r="27.5" gorn="0.4.0.0.0.0.0.0.0.0.0.0.0.0.0.0.6"/>
                                                                <circle stroke="#ffbf00" id="connector3pin" cx="60"  stroke-width="20" cy="360" fill="none" r="27.5" gorn="0.4.0.0.0.0.0.0.0.0.0.0.0.0.0.0.7"/>
                                                                <circle stroke="#ffbf00" id="connector14pin" cx="660"  stroke-width="20" cy="360" fill="none" r="27.5" gorn="0.4.0.0.0.0.0.0.0.0.0.0.0.0.0.0.8"/>
                                                                <circle stroke="#ffbf00" id="connector4pin" cx="60"  stroke-width="20" cy="460" fill="none" r="27.5" gorn="0.4.0.0.0.0.0.0.0.0.0.0.0.0.0.0.9"/>
                                                                <circle stroke="#ffbf00" id="connector13pin" cx="660"  stroke-width="20" cy="460" fill="none" r="27.5" gorn="0.4.0.0.0.0.0.0.0.0.0.0.0.0.0.0.10"/>
                                                                <circle stroke="#ffbf00" id="connector5pin" cx="60"  stroke-width="20" cy="560" fill="none" r="27.5" gorn="0.4.0.0.0.0.0.0.0.0.0.0.0.0.0.0.11"/>
                                                                <circle stroke="#ffbf00" id="connector12pin" cx="660"  stroke-width="20" cy="560" fill="none" r="27.5" gorn="0.4.0.0.0.0.0.0.0.0.0.0.0.0.0.0.12"/>
                                                                <circle stroke="#ffbf00" id="connector6pin" cx="60"  stroke-width="20" cy="660" fill="none" r="27.5" gorn="0.4.0.0.0.0.0.0.0.0.0.0.0.0.0.0.13"/>
                                                                <circle stroke="#ffbf00" id="connector11pin" cx="660"  stroke-width="20" cy="660" fill="none" r="27.5" gorn="0.4.0.0.0.0.0.0.0.0.0.0.0.0.0.0.14"/>
                                                                <circle stroke="#ffbf00" id="connector7pin" cx="60"  stroke-width="20" cy="760" fill="none" r="27.5" gorn="0.4.0.0.0.0.0.0.0.0.0.0.0.0.0.0.15"/>
                                                                <circle stroke="#ffbf00" id="connector10pin" cx="660"  stroke-width="20" cy="760" fill="none" r="27.5" gorn="0.4.0.0.0.0.0.0.0.0.0.0.0.0.0.0.16"/>
                                                                <circle stroke="#ffbf00" id="connector8pin" cx="60"  stroke-width="20" cy="860" fill="none" r="27.5" gorn="0.4.0.0.0.0.0.0.0.0.0.0.0.0.0.0.17"/>
                                                                <circle stroke="#ffbf00" id="connector9pin" cx="660"  stroke-width="20" cy="860" fill="none" r="27.5" gorn="0.4.0.0.0.0.0.0.0.0.0.0.0.0.0.0.18"/>
                                                            </g>
                                                        </g>
                                                    </g>
                                                </g>
                                            </g>
                                        </g>
                                    </g>
                                </g>
                                <rect y="19.247" width="71.150002" id="rect229"  gorn="0.4.0.0.0.0.0.0.1" style="fill:#141414" height="59.952999" x="0"/>
                            </g>
                        </g>
                    </g>
                </g>
            </g>
        </g>
    </g>
    <g transform="translate(-0.42500001,-9.623999)" >
        <g >
            <g >
                <g >
                    <g >
                        <g >
                            <g id="g243"  gorn="0.5.0.0.0.0.0.0">
                                <path d="m 26.437,38.129 h -6.329 l -1.565,1.42 1.287,1.387 h 6.329 l 1.53,-1.42 z m -5.703,-5.31 -0.417,4.768 h 0.73 l 6.086,-9.604 0.383,-4.362 h -0.974 z m 8.972,4.904 -1.6,1.42 -1.252,-1.386 1.252,-14.305 1.982,-1.758 0.939,0.981 z m -12.832,0.034 1.287,1.386 1.565,-1.42 1.113,-12.715 -1.287,-1.387 -1.53,1.387 z m -7.095,-0.034 -1.6,1.42 -1.252,-1.386 1.321,-15.116 1.113,-0.981 1.669,1.758 z m 3.374,-14.102 h -1.565 l -0.278,2.976 4.521,10.99 h 0.522 l 0.417,-5.14 z m -3.269,17.314 -1.287,-1.387 1.565,-1.42 h 6.294 l 1.287,1.387 -1.565,1.42 z M 11.449,23.046 9.78,21.288 10.893,20.274 h 17.874 l 0.939,1.014 -1.982,1.758 z M 7.519,58.824 6.58,57.809 8.562,56.017 h 16.275 l 1.669,1.792 -1.113,1.015 c 0,0 -17.874,0 -17.874,0 z m 7.72,-17.314 -6.085,9.604 m 6.085,-9.604 h 0.73 l -0.417,4.768 -5.807,9.199 H 8.736 l 0.417,-4.362 m 15.823,1.351 -0.278,3.01 h -1.565 l -3.617,-8.86 0.452,-5.106 H 20.49 Z M 5.259,56.39 6.198,57.404 8.18,55.612 9.467,41.307 8.18,39.921 6.615,41.341 Z m 22.743,0.033 -1.078,1.015 -1.669,-1.792 1.287,-14.305 1.53,-1.42 1.287,1.386 z m -12.554,-2.367 1.287,1.42 1.565,-1.42 1.113,-12.749 -1.288,-1.386 -1.565,1.42 z m 16.162,3.365 c 0,0.783 -0.635,1.417 -1.417,1.417 -0.782,0 -1.417,-0.635 -1.417,-1.417 0,-0.782 0.635,-1.417 1.417,-1.417 0.782,0 1.417,0.634 1.417,1.417 z" id="path235"  gorn="0.5.0.0.0.0.0.0.0" style="fill:#ff1e00"/>
                                <path d="m 62.437,38.129 h -6.329 l -1.565,1.42 1.287,1.387 h 6.329 l 1.53,-1.42 z m -5.703,-5.31 -0.417,4.768 h 0.73 l 6.086,-9.604 0.383,-4.362 h -0.974 z m 8.972,4.904 -1.6,1.42 -1.252,-1.386 1.252,-14.305 1.982,-1.758 0.939,0.981 z m -12.832,0.034 1.287,1.386 1.565,-1.42 1.113,-12.715 -1.287,-1.387 -1.53,1.387 z m -7.095,-0.034 -1.6,1.42 -1.252,-1.386 1.321,-15.116 1.113,-0.981 1.669,1.758 z m 3.374,-14.102 h -1.565 l -0.278,2.976 4.521,10.99 h 0.522 l 0.417,-5.14 z m -3.269,17.314 -1.287,-1.387 1.565,-1.42 h 6.294 l 1.287,1.387 -1.565,1.42 z m 1.565,-17.889 -1.669,-1.758 1.113,-1.014 h 17.874 l 0.939,1.014 -1.982,1.758 z m -3.93,35.778 -0.939,-1.015 1.982,-1.792 h 16.275 l 1.669,1.792 -1.113,1.015 z m 7.72,-17.314 -6.086,9.604 m 6.086,-9.604 h 0.73 l -0.417,4.768 -5.807,9.198 h -1.008 l 0.417,-4.362 m 15.822,1.352 -0.278,3.01 h -1.565 l -3.617,-8.86 0.452,-5.106 h 0.522 z m -19.717,3.924 0.939,1.014 1.982,-1.792 1.287,-14.305 -1.287,-1.386 -1.565,1.42 z m 22.743,0.033 -1.078,1.015 -1.669,-1.792 1.287,-14.305 1.53,-1.42 1.287,1.386 z m -12.554,-2.367 1.287,1.42 1.565,-1.42 1.113,-12.749 -1.288,-1.386 -1.565,1.42 z m 16.162,3.365 c 0,0.783 -0.635,1.417 -1.417,1.417 -0.783,0 -1.417,-0.635 -1.417,-1.417 0,-0.782 0.635,-1.417 1.417,-1.417 0.782,0 1.417,0.634 1.417,1.417 z" id="path237"  gorn="0.5.0.0.0.0.0.0.1" style="fill:#ff1e00"/>
                            </g>
                        </g>
                    </g>
                </g>
            </g>
        </g>
    </g>
</svg>
